<?xml version="1.0" encoding="utf-8"?>
<!-- Generator: Adobe Illustrator 23.0.0, SVG Export Plug-In . SVG Version: 6.00 Build 0)  -->
<svg version="1.1" id="Слой_5" xmlns="http://www.w3.org/2000/svg" xmlns:xlink="http://www.w3.org/1999/xlink" x="0px" y="0px"
	 viewBox="0 0 2000 2000" style="enable-background:new 0 0 2000 2000;" xml:space="preserve">
<style type="text/css">
	.st0{fill:#FFF;}
</style>
<g>
	<path class="st0" d="M564.96,733.92H240.26c-8.57,0-16.38,4.27-20.15,11.01L87.91,996.81c-3.04,5.44-3.05,11.8-0.03,17.24
		l132.24,253.69c3.76,6.77,11.59,11.06,20.18,11.06h324.65c12.39,0,22.44-8.8,22.44-19.66V753.58
		C587.39,742.72,577.35,733.92,564.96,733.92z M177.12,1031.65c-16.52,0-27.78-11.74-27.78-26.21c0-14.48,11.26-26.21,27.78-26.21
		s27.78,11.74,27.78,26.21C204.9,1019.91,193.64,1031.65,177.12,1031.65z"/>
	<path class="st0" d="M999.87,733.99H924.5c-1.59,0-2.99,1.07-3.4,2.61l-29.17,109.5c-0.91,3.42-5.74,3.51-6.77,0.12l-33.67-110.64
		c-0.45-1.48-1.82-2.49-3.37-2.49h-65.85c-1.55,0-2.92,1.01-3.37,2.5l-33.19,109.58c-1.03,3.4-5.88,3.31-6.77-0.13l-28.3-108.41
		c-0.4-1.55-1.8-2.63-3.4-2.63h-76.73c-2.36,0-4.05,2.28-3.37,4.54l72.56,239.66c0.45,1.48,1.82,2.5,3.37,2.5h68.6
		c1.53,0,2.88-0.99,3.35-2.45l36.57-114.17c1.05-3.27,5.68-3.26,6.71,0.02l35.74,114.12c0.46,1.47,1.82,2.47,3.36,2.47h69.05
		c1.55,0,2.91-1.01,3.36-2.49l73.43-239.66C1003.93,736.28,1002.24,733.99,999.87,733.99z"/>
	<path class="st0" d="M1200.67,846.25v129.11c0,1.94,1.58,3.52,3.52,3.52h78.96c1.94,0,3.52-1.58,3.52-3.52V818.64
		c0-55.68-31.24-90.08-83.29-90.08c-30.6,0-51.77,14.3-67.2,31.57c-2.15,2.41-6.12,0.89-6.12-2.34V651.96
		c0-1.94-1.58-3.52-3.52-3.52h-78.97c-1.94,0-3.52,1.58-3.52,3.52v323.4c0,1.94,1.58,3.52,3.52,3.52h78.97
		c1.94,0,3.52-1.58,3.52-3.52V846.25c0-26.71,15.39-41.19,36.21-41.19C1186.64,805.06,1200.67,819.55,1200.67,846.25z"/>
	<path class="st0" d="M1340.85,978.88h78.97c1.94,0,3.52-1.58,3.52-3.52V737.51c0-1.94-1.58-3.52-3.52-3.52h-78.97
		c-1.94,0-3.52,1.58-3.52,3.52v237.85C1337.33,977.3,1338.91,978.88,1340.85,978.88z"/>
	<path class="st0" d="M1639.6,970.83c1.15-0.61,1.85-1.81,1.85-3.11v-59.93c0-2.51-2.55-4.2-4.87-3.23
		c-8.92,3.71-18.15,5.97-27.72,5.97c-15.84,0-23.54-7.24-23.54-24.44v-79.32c0-1.94,1.58-3.52,3.52-3.52h50
		c1.94,0,3.52-1.58,3.52-3.52v-62.22c0-1.94-1.58-3.52-3.52-3.52h-50c-1.94,0-3.52-1.58-3.52-3.52V675.5c0-1.94-1.58-3.52-3.52-3.52
		h-78.96c-1.94,0-3.52,1.58-3.52,3.52v54.97c0,1.94-1.58,3.52-3.52,3.52h-21.93c-1.94,0-3.52,1.58-3.52,3.52v62.22
		c0,1.94,1.58,3.52,3.52,3.52h21.93c1.94,0,3.52,1.58,3.52,3.52v96.06c0,58.39,30.78,81.02,82.38,81.02
		C1604.74,983.86,1624.44,978.85,1639.6,970.83z"/>
	<path class="st0" d="M1790.81,728.56c-71.62,0-122.43,55.32-123.56,125.7c-1.15,71.71,57.8,129.8,129.52,130.49
		c45.8,0.44,78.63-16.46,102.13-42.66c3.38-3.77,3.02-9.57-0.88-12.8l-34.71-28.76c-3.31-2.74-8.15-2.75-11.39,0.09
		c-15.63,13.68-30.62,19.87-48.89,19.87c-23.89,0-41.98-10.87-50.39-32.27c-1.52-3.86,1.44-8.02,5.58-8.02h146.08
		c5.49,0,9.96-4.42,10.04-9.91c0.04-2.68,0.04-5.3,0.04-7.74C1914.38,790.58,1875.45,728.56,1790.81,728.56z M1829.57,836.29h-76.4
		c-2.35,0-4.1-2.2-3.58-4.5c5.43-24.17,20.33-39.86,41.67-39.86c22.27,0,37.65,15.4,41.93,40.06
		C1833.57,834.23,1831.84,836.29,1829.57,836.29z"/>
	<path class="st0" d="M788.7,1028.81c-28.29,0-47.15,10.51-61.99,24.68c-4.61,4.41-12.24,1.16-12.24-5.22v-6.78
		c0-4-3.24-7.24-7.24-7.24H635.7c-4,0-7.24,3.24-7.24,7.24v302.82c0,4,3.24,7.24,7.24,7.24h71.52c4,0,7.24-3.24,7.24-7.24v-77.26
		c0-6.26,7.38-9.54,12.06-5.39c14.66,13,34.1,22.9,62.63,22.9c57.94,0,108.19-48.44,108.19-128.1
		C897.34,1077.25,847.09,1028.81,788.7,1028.81z M762.45,1212.59c-27.61,0-49.79-23.09-49.79-55.67c0-33.05,22.18-56.13,49.79-56.13
		c28.06,0,50.24,23.09,50.24,55.22C812.69,1189.95,790.51,1212.59,762.45,1212.59z"/>
	<path class="st0" d="M1092.71,1030.11c-25.9,0.75-43.87,11.83-56.81,29.64c-4.11,5.66-13.08,2.73-13.08-4.27v-13.99
		c0-4-3.24-7.24-7.24-7.24h-71.52c-4,0-7.24,3.24-7.24,7.24v230.4c0,4,3.24,7.24,7.24,7.24h71.52c4,0,7.24-3.24,7.24-7.24v-68.81
		c0-56.58,25.35-82.38,70.16-82.38c4,0,7.24-3.24,7.24-7.24v-76.1C1100.22,1033.25,1096.81,1029.99,1092.71,1030.11z"/>
	<path class="st0" d="M1219.9,1034.24h-71.52c-4,0-7.24,3.24-7.24,7.24v230.4c0,4,3.24,7.24,7.24,7.24h71.52
		c4,0,7.24-3.24,7.24-7.24v-230.4C1227.14,1037.49,1223.9,1034.24,1219.9,1034.24z"/>
	<path class="st0" d="M1498.89,1224.68l-47.25-34.06c-2.99-2.16-7.11-1.69-9.61,1.02c-11.97,13-23.67,20.95-41.87,20.95
		c-28.97,0-48.88-23.99-48.88-55.67c0-30.78,19.01-55.23,50.25-55.23c16.46,0,29.37,6.06,40.29,18.8c2.44,2.84,6.67,3.31,9.7,1.11
		l46.2-33.47c3.2-2.32,3.98-6.8,1.7-10.02c-21.02-29.69-53.43-48.85-100.61-48.85c-77.4,0-131.27,58.39-131.27,127.65
		c0,70.16,54.32,128.09,128.1,128.09c50.6,0,82.43-19.97,104.86-50.15C1502.9,1231.62,1502.15,1227.03,1498.89,1224.68z"/>
	<path class="st0" d="M1665.61,1028.81c-71.61,0-122.43,55.32-123.56,125.7c-1.15,71.71,57.8,129.8,129.51,130.49
		c47.22,0.45,80.66-17.52,104.3-45.13c2.15-2.51,1.83-6.3-0.71-8.41l-38.99-32.31c-2.26-1.87-5.55-1.79-7.72,0.18
		c-16.26,14.75-31.67,21.4-50.6,21.4c-23.92,0-42.02-10.89-50.42-32.33c-1.5-3.83,1.43-7.95,5.54-7.95h150.19
		c3.16,0,5.79-2.49,5.9-5.65c0.14-4.13,0.14-8.28,0.14-12C1789.18,1090.83,1750.25,1028.81,1665.61,1028.81z M1701.66,1136.54
		h-70.83c-3.89,0-6.7-3.7-5.7-7.47c5.96-22.48,20.49-36.89,40.94-36.89c21.4,0,36.44,14.22,41.38,37.22
		C1708.23,1133.07,1705.41,1136.54,1701.66,1136.54z"/>
</g>
</svg>
